<svg xmlns="http://www.w3.org/2000/svg" xmlns:xlink="http://www.w3.org/1999/xlink" width="1620" zoomAndPan="magnify" viewBox="0 0 1215 705.000001" height="940" preserveAspectRatio="xMidYMid meet" version="1.0"><defs><clipPath id="069a2d36a0"><path d="M 148.003906 61.324219 L 1067 61.324219 L 1067 642.679688 L 148.003906 642.679688 Z M 148.003906 61.324219 " clip-rule="nonzero"/></clipPath><clipPath id="61c04f9f82"><path d="M 1048.25 455.203125 C 1048.25 445.832031 1048.25 427.082031 1048.25 417.707031 L 1029.503906 417.707031 L 1029.503906 398.960938 L 1010.753906 398.960938 L 1010.753906 380.214844 L 992.007812 380.214844 L 992.007812 361.464844 C 982.632812 361.464844 963.886719 361.464844 954.511719 361.464844 L 954.511719 342.71875 L 973.261719 342.71875 C 973.261719 319.191406 973.261719 291.253906 973.261719 267.730469 L 954.511719 267.730469 C 954.511719 251.003906 954.511719 228.210938 954.511719 211.484375 L 935.765625 211.484375 C 935.765625 202.113281 935.765625 183.363281 935.765625 173.992188 L 917.019531 173.992188 L 917.019531 155.058594 L 898.269531 155.058594 L 898.269531 136.3125 L 879.523438 136.3125 L 879.523438 117.566406 L 860.773438 117.566406 L 860.773438 98.816406 C 851.402344 98.816406 832.652344 98.816406 823.28125 98.816406 L 823.28125 80.070312 C 813.90625 80.070312 795.160156 80.070312 785.785156 80.070312 L 785.785156 61.324219 C 755.640625 61.324219 722.007812 61.324219 692.046875 61.324219 L 692.046875 80.070312 C 675.320312 80.070312 652.53125 80.070312 635.804688 80.070312 L 635.804688 98.816406 C 626.429688 98.816406 607.683594 98.816406 598.308594 98.816406 L 598.308594 117.566406 L 579.5625 117.566406 L 579.5625 136.3125 L 560.816406 136.3125 L 560.816406 155.058594 L 542.066406 155.058594 L 542.066406 136.3125 C 532.695312 136.3125 513.945312 136.3125 504.574219 136.3125 L 504.574219 117.566406 C 467.996094 117.566406 428.480469 117.566406 392.085938 117.566406 L 392.085938 136.3125 C 382.714844 136.3125 363.964844 136.3125 354.59375 136.3125 L 354.59375 155.058594 C 345.21875 155.058594 326.472656 155.058594 317.097656 155.058594 L 317.097656 173.808594 L 297.980469 173.808594 L 297.980469 192.554688 L 279.234375 192.554688 C 279.234375 201.929688 279.234375 220.675781 279.234375 230.050781 L 260.488281 230.050781 C 260.488281 239.421875 260.488281 258.171875 260.488281 267.546875 L 241.738281 267.546875 C 241.738281 284.269531 241.738281 307.0625 241.738281 323.789062 L 260.488281 323.789062 L 260.488281 342.535156 C 251.113281 342.535156 232.367188 342.535156 222.992188 342.535156 L 222.992188 361.28125 L 204.246094 361.28125 L 204.246094 380.03125 L 185.496094 380.03125 L 185.496094 398.777344 L 166.75 398.777344 C 166.75 408.152344 166.75 426.898438 166.75 436.273438 L 148.003906 436.273438 C 148.003906 466.414062 148.003906 500.050781 148.003906 530.011719 L 166.75 530.011719 C 166.75 539.382812 166.75 558.132812 166.75 567.503906 L 185.496094 567.503906 L 185.496094 586.253906 L 204.246094 586.253906 L 204.246094 605 L 222.992188 605 L 222.992188 623.746094 C 232.367188 623.746094 251.113281 623.746094 260.488281 623.746094 L 260.488281 642.496094 C 491.707031 642.496094 723.292969 642.496094 954.511719 642.496094 L 954.511719 623.746094 C 963.886719 623.746094 982.632812 623.746094 992.007812 623.746094 L 992.007812 605 L 1010.753906 605 L 1010.753906 586.253906 L 1029.503906 586.253906 L 1029.503906 567.503906 L 1048.25 567.503906 C 1048.25 558.132812 1048.25 539.382812 1048.25 530.011719 L 1066.996094 530.011719 C 1066.996094 506.484375 1066.996094 478.546875 1066.996094 455.019531 L 1048.25 455.019531 Z M 1048.25 455.203125 " clip-rule="nonzero"/></clipPath></defs><g clip-path="url(#069a2d36a0)"><g clip-path="url(#61c04f9f82)"><path fill="#ffffff" d="M 148.003906 61.324219 L 1066.800781 61.324219 L 1066.800781 642.679688 L 148.003906 642.679688 Z M 148.003906 61.324219 " fill-opacity="1" fill-rule="nonzero"/></g></g></svg>