<svg version="1.2" xmlns="http://www.w3.org/2000/svg" viewBox="0 0 1000 1000" width="1000" height="1000"><style>.a{fill:#181718}.b{fill:#a3662a}.c{fill:#d4893e}.d{fill:#c07c77}.e{fill:#eba43b}.f{fill:#e18f87}.g{fill:#c0ada0}.h{fill:#f4e6db}.i{fill:#fbdede}.j{fill:#c0a0a0}.k{fill:#cdc5c6}.l{fill:#e3d9e9}.m{fill:#d1c8d6}.n{fill:#fafbfc}</style><path fill-rule="evenodd" class="a" d="m490.2 644c-22-1.3-29.9-5.2-47.8-23.2-10.7-10.7-14.2-13.7-20.2-16.6-14.9-7.5-35.2-23-49.2-37.5-8.5-8.9-10.7-12.5-10.7-18 0-6.3 0.6-7 6-7 2.7 0 4.8 0.4 4.8 0.9 0 1.6 7.7 10 14.2 15.6 23.3 20.5 43.3 30.8 59.4 30.9 12.7 0 31.1-5.3 39-11.4 2.5-1.9 9.4-12.7 9.4-14.6 0-0.3-2.9-1.5-6.2-2.6-11.3-3.8-38.8-20.9-49.9-31.2-3-2.8-6.8-7.4-8.3-10.4-2.9-5-3-5.7-3-17.5 0-11.5 0.2-12.7 2.8-17.9 4.6-9.5 15.7-18.6 27.7-22.6 9.8-3.4 18.2-4 49.4-3.6 25.7 0.4 31.1 0.7 35.7 2.2 10.7 3.5 18 7.8 24.7 14.4 8.4 8.3 10.2 13.1 10.2 27.5 0 9.5-0.2 10.8-3 16.1-3.6 7.1-11.4 15.2-21.1 21.9-11.3 7.6-29.7 18.1-36.6 20.5-7.1 2.6-7.3 3.3-2.6 10.1 4.8 6.9 13.6 12 30.3 17.1 5.6 1.6 9.8 2.3 16.8 2.3 11.1 0 18.2-2 29.6-8.7 16.2-9.6 38.8-28.7 42.7-36 1.2-2.6 2-3 5.4-3 4.4 0 5.9 1.8 5.9 7.1 0 5.9-4.5 12.9-13.9 21.8-16.1 15.5-30.7 26-47.2 34.3-7.7 3.8-10.3 5.7-12.6 8.9-3.9 5.6-17.2 18.3-23.2 22.1-12.6 7.8-27.7 10-58.5 8.1zm25.7-10.9c7.5-1.6 16.5-6.1 20.7-10.4 2-2.1 5.2-6.4 7.2-9.7l3.4-5.8-7.5-1.2c-9.3-1.6-20.3-6.2-29.3-12.2l-7-4.7-4.4 3.3c-10.5 7.6-22.3 12.6-33.6 14l-5.7 0.7 2.9 4.5c11.7 17.7 32.1 25.9 53.3 21.5z"/><path fill-rule="evenodd" class="a" d="m361.8 428.8c-8.2-2.8-14.4-7-22.3-14.9-13.7-13.9-14.6-18.9-5.2-31.1 7-9.2 12.9-14.3 21.1-18.4 5.9-3 7.2-3.2 18.5-3.6 11.9-0.3 12.2-0.3 18.4 2.8 8.8 4.4 17.5 14 24 26.6 7.5 14.8 6.8 20.1-3.3 27.6-6.2 4.6-17 10.1-22.7 11.7-6.2 1.7-22.8 1.3-28.5-0.7zm28.4-36.5c1.4-1.6 1.5-2 0.2-2.9-1.6-1.5-5.5-0.6-5.5 1.2 0 1.3 2 3.6 3 3.6 0.4 0 1.3-0.8 2.3-1.9zm-12.2-11.4c0.7-0.8 1-2.2 0.6-2.9-0.7-1.9-4.4-1.9-5.1 0-0.6 1.4 1.1 4.4 2.6 4.4 0.4 0 1.2-0.7 1.9-1.5z"/><path fill-rule="evenodd" class="a" d="m611.2 428.6c-11.5-4.1-24.9-14.1-26.3-19.5-1.1-4.3 0.5-10.1 5.5-20.2 5.6-11.6 14.2-21.4 21.9-25.1 10.3-4.8 29.5-3.7 40.2 2.5 5.5 3.3 15.2 12.9 19.4 19.4 5.9 9.1 4.3 14.7-8.6 27.8-8.2 8.3-14.9 13.1-22 15.5-6.8 2.3-23.1 2.1-30.1-0.4zm31.9-37.2c0.4-1-0.1-2.1-1.2-2.8-1.3-1.1-1.9-1-3.7 0.7-1.9 1.9-1.9 2.1-0.2 3.4 2.2 1.6 4.2 1.1 5.1-1.3zm-11.9-11.3c0.8-1.3 0.7-2-0.4-2.6-3.4-2.2-6.4 0.5-3.9 3.4 1.5 1.8 2.8 1.5 4.3-0.8z"/><path class="b" d="m618 434.4c-6.3-1.2-21.3-8.8-26.8-13.7-4.2-3.7-4.6-4.5-4.6-8.4 0-2.4 0.3-4.3 0.7-4.3 0.4 0 2.5 1.7 4.7 4 2 2.1 6.8 5.7 10.3 7.9 16.9 10 31.7 10.5 45.7 1.3 5.1-3.3 18.5-16.4 21.1-20.6 2.3-3.8 5-3.3 5 0.9 0 2.7-1.3 5-6 10.9-15.1 18.7-31 25.6-50.1 22z"/><path class="b" d="m361.5 432.6c-7.7-2.8-13-6.2-19.3-12.2-4.7-4.5-5.5-5.7-5.5-8.8 0-2 0.5-3.6 1.1-3.6 0.6 0 4 2.6 7.6 5.9 9.2 8.5 18.7 12.9 28.7 13.5 4.4 0.3 9.8-0.1 12.5-0.7 6.1-1.5 16.7-6.9 23.4-11.9 3-2.1 5.8-3.9 6.4-3.9 0.5 0 1 1.5 1 3.3 0 4.6-5.4 9.3-17.7 15.3l-9.4 4.5-11.8 0.3c-9.7 0.2-12.7-0.1-17-1.7z"/><path fill-rule="evenodd" class="c" d="m484.8 822.9c-19-1.8-46.5-7.9-62-13.8-18.9-7.2-39-17.5-60-31-5.9-3.8-15-9-19.9-11.6l-9.1-4.8v-40h3c2.4 0 5.7 2 13.6 7.8 32.6 24.2 60.1 39.1 110.7 60.1 10.9 4.4 24.7 10.2 30.8 12.9l11.1 4.7 18-7.9c67.9-30 91.1-42.8 124.1-68.2 16.4-12.8 27.4-23.7 43.1-42.8 17.9-21.9 27.6-35 34.7-46.8 11.8-19.6 50.5-100.2 50.5-104.9 0-0.9 4.7-5.5 10.4-10.1 5.7-4.7 10.3-9 10.3-9.6 0-1.1-11.7-19.3-19.8-30.8-7.3-10.3-46.3-49.2-52.7-52.6-3.9-2-6-2.4-12.6-2.3-9 0-9.8 0.3-25.6 10.8-13.4 8.9-33.5 18.7-49.6 24-6.8 2.2-12.5 4.2-12.7 4.4-0.3 0.4 8.5 15.6 12.7 21.6 1.1 1.7 1.9 4.5 1.9 6.2 0 3-0.2 3.2-3.3 3.2-4.8 0-17.3-3.8-38.5-11.8-10.2-3.9-19.6-7.1-20.8-7.1-1.3 0-4.6-2.5-8.4-6.1-6.4-6.2-14.2-10.7-24.4-13.9-3.9-1.2-10-1.8-22.6-2.1l-17.2-0.5v-97.1c0-53.3-0.1-107.9-0.3-121.3l-0.3-24.3-6.6 0.5c-3.6 0.3-11.4 1.9-17.4 3.5-16.3 4.3-32.3 8.9-33.9 9.8-0.8 0.5-6.5 2.9-12.7 5.3-6.1 2.5-13.1 5.6-15.4 6.9-2.2 1.4-5.6 2.5-7.4 2.5h-3.4l-11.3-24.2c-10.2-22.1-11.9-24.9-17.7-31.3-13.7-15-56.9-59.4-83.3-85.8-20.3-20.1-27.8-28.2-27.8-29.9 0-2 0.2-2.2 3.2-1.6 17.7 3.5 68.6 40.5 127 92.3 7.7 6.9 11.5 9.6 13.3 9.6 1.4 0 20.7-1 42.8-2.4 49.9-3.1 55.5-3.1 104.3 0 21.6 1.4 40.2 2.4 41.4 2.4 1.2 0 6.6-4 13.3-9.9 47.2-42.1 92.8-76.6 114.6-86.9 17.8-8.5 30.8-8.2 35.4 0.6 2.4 4.6 15.6 86.6 20.9 129.7 1.6 12.7 3.2 24.9 3.6 27 0.3 2.2 1 30.3 1.4 62.5l0.8 58.5 4 30.5c2.2 16.8 7 52.7 10.5 79.9 6.4 49.3 6.5 49.4 4.9 55.5-8.7 33.9-43.5 121.3-60.1 150.8-12.4 22.2-35.9 54.6-49.1 67.9-8 8.1-15 12.8-38.3 26.2-9.4 5.3-23.1 13.6-30.7 18.7-7.5 4.9-18.4 11.3-24.4 14.1-13.2 6.4-45.5 17.5-58.4 20.1-18.8 3.8-39.1 4.8-58.6 2.9zm155.6-393.5c7-2.7 16-9.5 23-17.9 7-8.2 8.5-10.6 6.3-9.8-1.2 0.4-1.1-0.2 0.6-3.1 2-3.3 2-3.7 0.6-6.7-4.8-9.6-17.8-21.7-27.3-25.5-8-3.1-21.2-3-28 0.2-10 4.8-20.6 18.7-26.6 34.8-1.8 4.7-1.8 4.7 0.5 7.7 1.2 1.7 1.8 2.8 1.1 2.4-0.6-0.4-1.1-0.1-1.1 0.8 0 4.1 21.4 17.2 31.5 19.2 5.6 1.1 12.9 0.4 19.4-2.1zm-57.5-65.8c2.3-1.2 7.6-4.5 11.8-7.5 11.1-7.9 15.2-9.1 28.6-9.1 11.2 0 11.4 0 13.4-2.7 3.1-3.8 2.3-11.3-2.3-21.9-6.7-15.5-13.8-21.8-27.6-24.6-6.2-1.3-11.1-0.7-15.8 1.7-17.6 9.1-30 39.8-22.3 55.5 1.9 4 7.9 10.7 9.6 10.7 0.3 0 2.4-1 4.6-2.1zm146.2-92c2.4-5 2.9-9.4 4.5-39.2 1.3-24 1.3-35 0.5-59.4-1.3-36.6-2.1-40.9-8.3-45-3.5-2.2-6.6-0.2-14.8 9.6-7.6 9.1-26.6 30.1-44.7 49.5-6.9 7.4-11.9 13.6-11.9 14.7 0 3.9 15.1 21.4 41.4 48.2 27 27.3 27.3 27.5 29.5 26 1.3-0.8 3-2.8 3.8-4.4z"/><path class="d" d="m500.7 611.4c0.1-20.8 0.5-26.1 1.6-26.8 0.8-0.6 3.2 0.6 7.6 3.8 11.4 8.5 28.5 15.2 38.6 15.3 3.4 0 3.7 0.2 3.1 2.3-1.4 4.7-6.9 13.9-11.1 18.4-7.2 8-19.5 12.7-33.4 12.7h-6.6z"/><path fill-rule="evenodd" class="e" d="m327.4 757.9c-4.8-2.7-11.5-6.8-14.8-9.1-18.6-13.2-49.2-55.3-66.4-91.3-14.5-30.5-42.6-107.6-48.7-133.6-1.7-7.5-1.7-7.7 0.9-28.5 2.8-21.8 9-68.6 15.1-114.5l3.5-26.6 0.7-52.6c0.5-28.9 1.3-56.1 1.9-60.5 4-32 5.5-43.2 8.5-63.9 1.9-13 4.5-29.9 5.8-37.6 1.4-7.7 4.1-23.9 5.9-36.1 1.9-12.2 3.9-23.2 4.4-24.4 0.5-1.2 2-3.3 3.5-4.7 2.3-2.2 3.5-2.5 9.6-2.5h7.1l28.1 28.1c29.5 29.4 82.6 84.3 88 91 1.8 2.1 8.2 14.5 14.3 27.5 6.1 13 11.2 23.8 11.4 24 0.2 0.2 2.2-0.8 4.6-2.2 2.4-1.4 9.4-4.6 15.5-7 6.2-2.5 11.9-4.9 12.7-5.4 1.6-0.8 17.1-5.3 34-9.8 6-1.6 14.3-3.1 18.6-3.5 4.4-0.4 8.1-0.8 8.4-1 0.3-0.2 1.2 0 1.9 0.5 1.1 0.7 1.3 21.4 1.4 123.1l0.1 122.3-15.7 0.6c-16.6 0.6-24.9 2.1-32.8 6.3-5.5 2.6-15 9.6-16.2 11.8-0.4 0.8-1.2 1.5-1.7 1.5-0.5 0-9.4 3.2-19.8 7.2-24.3 9.3-37.2 13.4-42.1 13.4-3.7 0-4-0.2-4-2.8 0-1.8 2.7-7.4 7-14.8 3.9-6.6 6.9-12.1 6.7-12.3-0.2-0.2-5.9-2.3-12.7-4.5-22.3-7.6-42.6-17.5-57.1-28.2-3.8-2.8-9.2-5.8-11.9-6.8-7.2-2.4-16.6-1.5-23.2 2-5.9 3.3-45.3 42.3-51.1 50.7-4.9 7.1-15 22.9-18.4 28.6l-2.5 4.5 8.8 7.6c6.1 5.3 8.9 8.3 8.9 9.7 0 2.6 3.7 12.3 13.7 35.7 21.3 49.7 38.5 80.9 58.2 105.2 12.3 15.1 28.9 34.1 36.2 41.2 3.8 3.7 7 7.6 7 8.6 0 2-1.1 2.3-2.7 0.8-0.8-0.8-1.2 3.8-1.3 17.9 0 10.4-0.2 19-0.3 19.1-0.1 0.1-4.1-2-9-4.7zm69.4-331.4c8.1-3.9 21.3-13.8 16.2-12.3-1.3 0.5-1-0.2 1.2-2.7 4.9-5.7 4.9-6.7-0.8-18-6.4-12.7-15-22.4-23.8-26.8-5.1-2.6-7-3-13.5-3-9.7 0-16.2 2-23.8 7.2-6.2 4.2-17.3 16.3-19.9 21.7-1.3 2.7-1.2 3.4 0.4 6.4 1 2 4.5 6.7 8 10.4 3.4 3.9 4.8 5.6 3 4.1-1.7-1.6-3.4-2.6-3.8-2.2-0.9 0.9 9.7 10.9 14.9 14 8.6 4.9 14.1 6.4 23.7 6 8.4-0.3 9.7-0.6 18.2-4.8zm32.8-63.9c10.8-9.4 9.5-31.9-3-50.2-5.1-7.5-11.8-13.1-17.5-14.7-8.6-2.4-26 2.6-29.8 8.7-1 1.5-2.3 3.3-3 4.1-2.2 2.2-7.8 14.1-9.6 20.1-1.9 6.6-1.4 9.9 2.3 13.7 2.4 2.6 2.8 2.7 12.7 2.7 9.1 0 10.7 0.3 16.2 2.9 3.4 1.6 9.3 5.2 13.1 8 6.8 5 11.6 7.7 14 7.8 0.6 0 2.7-1.4 4.6-3.1zm-147-87.9c3.3-2.3 37.3-36.9 50.3-51.2 6-6.6 13.8-16.5 15.5-19.8 1.7-3.4 0.7-4.8-16-22.5-15.1-15.9-28-30.1-40.4-44.1-3.8-4.3-8.2-8.4-10-9.3-2.9-1.4-3.4-1.4-5.8 0.2-4.7 3.1-6.4 9-7.4 25.5-2.4 35.1-0.8 101.1 2.6 113.7 1.4 4.6 5 9.9 7 9.9 0.4 0 2.3-1.1 4.2-2.4z"/><path class="f" d="m488.3 635.6c-12.4-3.4-22.7-11.4-29.8-23.3-4.8-7.8-4.7-8.6 0.4-8.6 10.4 0 26.4-6.3 37.7-14.8 3.6-2.7 6.6-4.9 6.8-4.9 0.2 0 0.3 11.8 0.2 26.4l-0.2 26.2-4.9 0.2c-2.6 0.1-7.3-0.4-10.2-1.2z"/><path class="g" d="m500.7 810.5c-0.4-0.3-0.7-26.6-0.7-58.4v-57.7l7.7-0.6c10.4-0.8 23.6-4.1 34-8.6 9.3-4 25.1-14.1 32.9-20.9 2.5-2.3 9.7-6.6 16-9.8 6.2-3 16.9-9.3 23.8-13.9 13.3-8.9 18.2-11.5 33.4-18.2 21.9-9.6 55.4-32.5 108.4-74.2 13.2-10.3 16.4-12.4 19.1-12.4 2.7 0 3.2 0.3 2.3 1.2-0.7 0.7-1.2 1.9-1.2 2.7 0 4.7-39.1 85.4-50.6 104.7-7 11.8-16.8 25-34.7 46.8-15.6 19.1-26.6 30-43.1 42.8-33 25.6-55.4 37.9-125.3 68.8-19 8.4-20.8 9-22 7.7z"/><path class="g" d="m610.2 349.9c0-1.1 1.8-4.3 4.2-7.2 7.3-8.9 10.5-18.9 10.5-32.7 0-8.7 1-9.2 5.6-3.1 7.3 9.7 12.7 26.7 11.2 34.9-1.4 7.4-2.6 8.1-15.4 8.1-6.1 0-12.2 0.4-13.6 1-2.2 0.8-2.5 0.7-2.5-1z"/><path class="h" d="m379.4 350.2c-10.6-0.4-11-0.4-13.7-3.2-5.3-5.6-4.2-17.2 3-31.4 3.7-7.4 7.7-12.4 9.1-11.6 0.5 0.4 1.2 4.9 1.4 10.2 0.6 11.1 3.7 20.3 9.2 27.8 3 4.3 4.6 9.2 2.7 8.7-0.5-0.1-5.7-0.4-11.7-0.5z"/><path class="i" d="m272.3 277.7c-3.6-3.6-5.1-11.1-6.5-31.6-1.5-21.8-1.5-74.1-0.1-95.5 1.5-20.9 4.4-26.9 13.2-26.9 5.6 0 8.5 2 16.1 10.5 12.3 14 25.3 28.1 40.3 44.1 8.2 8.6 15.4 16.7 16 17.9 1.5 2.7 1.5 7.7 0 10.4-1.7 3.4-9.6 13.3-15.5 19.9-12.9 14.2-47 48.9-50.2 51.1-4.7 3.3-10.1 3.4-13.3 0.1z"/><path class="j" d="m692.8 252.7c-15.1-15.1-30.3-31.6-34.4-36.9-6.5-8.6-7.4-10.3-7.4-13.9 0-4.7-1.1-3.4 26.9-33.7 9.5-10.1 21.8-23.8 27.4-30.3 5.6-6.5 11.3-12.4 12.7-13 7.5-3.6 14.9 1 16.9 10.3 0.7 2.8 1.6 19.4 2.1 36.9 1 26.4 0.9 36.9-0.4 62.2-0.8 16.9-1.9 32.1-2.4 34-2.2 8.7-4.9 11.8-10.9 11.8-3.3 0.1-5.1-1.7-30.5-27.4z"/><path class="k" d="m489.7 805.8c-6.5-2.8-20.7-8.8-31.5-13.4-40.9-16.8-64.1-28.5-88.2-44.3-29.6-19.5-40.6-28.8-59.5-51-28.3-32.9-41.3-52.9-59.6-91.9-12.4-26.3-29.9-68.2-28.8-69.2 0.3-0.3 0-1.1-0.6-1.9-0.8-0.9-0.5-1.2 2.3-1.2 2.8 0 5.2 1.5 14.6 9.4 6.2 5.2 20.8 16.8 32.4 25.8 47.5 36.9 64.2 47.2 100.3 62 4.1 1.7 12 5.9 17.8 9.5 9.4 5.9 26.9 15.1 36.8 19.5 2.2 0.9 5.3 2.8 7 4.3 1.7 1.6 4.3 3.6 5.8 4.7 1.5 1.1 4 3 5.4 4.2 1.5 1.2 3.1 2.2 3.5 2.2 0.3 0 2 1.1 3.7 2.4 2.7 2 10.3 5.8 18.9 9.4 6.8 2.8 15.1 5 24.8 6.6 7.3 1.2 11.1 2.2 11.1 3.1 0 0.5-0.7 1.1-1.5 1.1-1.3 0-1.4 7-1.4 57.1 0 31.4-0.3 57-0.7 56.9-0.5 0-6.1-2.4-12.6-5.3z"/><path class="l" d="m496.1 696.8c-0.3-0.2-2.5-0.7-5-1-10.8-1.4-17.4-3.5-32.9-10.5-3.7-1.6-8.3-4.1-10-5.5-1.7-1.3-3.5-2.3-3.8-2.3-0.4 0-1.9-1-3.4-2.2-1.5-1.3-4-3.2-5.4-4.2-1.6-1.1-3.3-2.5-3.9-3-3.1-2.9-8.4-6.3-12.7-7.9-3.7-1.3-5.9-3.2-10.6-9-11-13.8-20.9-30.1-36.8-60.9l-8.6-16.8-0.5-11c-0.4-10.5-0.4-10.9 1.6-10.9 1.1 0 2.6 0.9 3.2 2.2 2 3.8 15.7 17.2 26 25.8 11.9 9.7 22.1 16.7 31.8 21.6 6 3 9.6 5.9 20.2 16.7 18.5 18.5 25.1 21.6 50.2 23.2 23.7 1.4 38.7-1 50.2-8.2 6-3.7 19.3-16.4 23.3-22 2.2-3.3 4.9-5.1 12.5-9 30.2-15.1 64.7-46.7 60.1-55.2-1.4-2.8-2.6-2.5-4.4 0.9-3.8 7.4-26.4 26.5-42.7 36-12.4 7.3-18.2 8.8-33 8.7-11.2 0-13.8-0.4-21.2-2.8-18.1-6-26.7-11.9-31.1-21.2-4-8.6-4.1-8.3 3.4-10.6 7.1-2.3 26.4-12.9 38.5-21.3 19.9-13.6 27.4-27.7 23.3-43.9-0.9-3.4-2.5-7.6-3.6-9.3-1.8-2.8-1.8-3.3-0.5-4.4 1.7-1.4 2.3-1.3 27.1 8 15 5.6 33 11.6 35.1 11.6 0.3 0-0.5-1.4-1.6-3.1-5.1-7.8-16-26.6-15.6-26.9 0.2-0.2 6.6-2.4 14-4.9 17.4-5.7 37.2-15.2 51.2-24.5 16.6-11 16.1-10.8 28.5-10.9 9.8 0 11.3 0.3 15.6 2.5 6.4 3.3 45.4 42.3 52.7 52.6 6.5 9.1 21.6 32.5 22.2 34.2 0.9 2.4-66.5 55.2-104.9 82.2-15.4 10.8-32.1 20.6-43.8 25.7-15.3 6.7-20.2 9.4-33.5 18.2-6.8 4.6-17.6 10.9-23.8 14-6.3 3.1-13.4 7.5-16 9.7-13.2 11.6-32.2 22-48.7 26.5-7.7 2.2-31.5 4.4-32.7 3.1z"/><path class="m" d="m438.5 591.9c-7.9-1.1-17.9-4.9-26.9-10.4-16.9-10.4-37.2-27.8-41.3-35.5-1.1-2.2-1-2.3 2.3-2.3 2 0 7 0.9 11.1 1.9 20.1 5.1 42.4 5.3 72.7 0.4l10-1.5 9.7 5.5c5.3 3 12.8 6.5 16.5 7.7 3.9 1.1 7.1 2.2 7.3 2.4 0.8 0.5-5.1 13.2-7.9 17-6.9 9.5-35.2 17.3-53.5 14.8z"/><path class="m" d="m571.4 365.7c-1.9-1.7-4.4-5.2-5.7-7.7-2-4-2.3-6.1-2.2-15 0-8.5 0.5-11.7 2.8-18.2 4.3-12.9 12.6-23.6 22.1-28.5 10.4-5.3 33.7-0.8 39.8 7.8 1 1.6 1.5 2.5 0.8 2.1-0.8-0.4-1.1 1.2-1.1 6.6 0 9.4-1.4 16.5-4.5 23.2-3.5 7.7-8.8 13.8-14 16-2.5 1.1-7.9 4.3-12 7.2-14.8 10.4-20 11.7-26 6.5z"/><path class="n" d="m408.9 655.4c-7-3.5-17.3-9.2-23-12.8-5.7-3.6-13.7-7.8-17.7-9.5-35.7-14.7-52.7-25.2-98.9-60.8-10.8-8.3-25.1-19.8-31.9-25.4-6.8-5.6-17.2-14.2-23.3-19.2-6-5-11.1-9.4-11.1-9.8 0-1.1 11.7-20.5 19.5-32.1 5.4-8.1 11.4-14.9 28.2-31.7 13-13.1 23-22.2 25.8-23.8 6.2-3.4 16.5-5 23.3-3.8 7.3 1.4 11.4 3.3 18.6 8.6 14.4 10.7 34.9 20.7 58.6 28.5 7.3 2.5 13.5 4.6 13.6 4.8 0.2 0.2-3.3 6.8-7.9 14.7-4.7 7.9-8.1 14.4-7.5 14.4 2 0 21.3-6.6 39.2-13.5 18.8-7.2 26.6-9.6 25.3-7.5-0.3 0.5-2.2 3.3-3.9 6-4.3 6.3-6 13.3-5.4 21.8 0.8 12.5 7.7 20.9 28.2 34.6 6 4 10.8 7.5 10.9 7.8 0 0.9-11.6 2.8-26.4 4.4-24.1 2.5-45.7 1.6-62.3-2.6-9.2-2.3-9.1-2.3-8.3-0.1 0.5 1.4 0.4 1.4-0.9-0.2-0.7-1.1-1.4-2.2-1.4-2.7 0-0.4-0.9-0.8-2-0.8-2.5 0-3.5 3.9-2 6.9 0.9 1.7 0.9 2.3 0 2.9-1 0.6-1.2 2.9-0.7 8.6 0.5 7.1 1 8.6 8.1 22.4 17.8 34.7 30.4 54.8 43.3 68.9 3.5 4.1 6.1 7.3 5.7 7.3-0.5 0-6.6-2.8-13.7-6.3z"/><path class="n" d="m383.5 396c-7-5.5 1.6-15.3 9.1-10.1 3.1 2.2 2.9 7.5-0.4 10.1-1.5 1.2-3.3 2.1-4.3 2.1-1 0-2.9-0.9-4.4-2.1z"/><path class="n" d="m637 396.6c-4.1-1.7-5.2-5.6-2.5-9.1 5-6.7 15.3-2.1 12.2 5.5-1 2.3-4.9 5.3-6.3 5.1-0.1-0.1-1.6-0.7-3.4-1.5z"/><path class="n" d="m374.4 385.5c-4.8-0.8-6.8-7.5-3.3-11 4.3-4.2 11.9-1.1 11.9 4.7 0 4.3-4 7.1-8.6 6.3z"/><path class="n" d="m623.6 383.6c-3.7-4.2-0.6-11.1 5.1-11.1 5.9 0 9.3 7.5 5.3 11.2-2.5 2.2-8.4 2.1-10.4-0.1z"/><path class="n" d="m417.9 367.2c-1.6-0.7-6-3.6-9.9-6.4-3.7-2.7-9.6-6.4-12.9-7.9-11.2-5.3-17.7-17.9-19-36.9-0.9-12.7-0.4-14 6.7-17.6 8.4-4.3 23.4-5.8 30.7-3.2 8.5 3.1 18.1 14.6 23.2 27.7 3.8 9.9 4.4 26 1.3 34.1-2.7 7.5-7.4 11.6-13 11.6-2.3-0.1-5.5-0.7-7.1-1.4z"/></svg>